<svg width="13" height="13" viewBox="0 0 13 13" fill="none" xmlns="http://www.w3.org/2000/svg">
<g clip-path="url(#clip0_384_195160)">
<path fill-rule="evenodd" clip-rule="evenodd" d="M6.31178 3.10708L9.45532 8.49571H9.45584C9.47857 8.53467 9.49063 8.57895 9.49078 8.62407C9.49093 8.66918 9.47918 8.71354 9.45671 8.75266C9.43423 8.79178 9.40184 8.82428 9.36279 8.84687C9.32374 8.86947 9.27942 8.88136 9.2343 8.88134H2.94876C2.90351 8.88163 2.859 8.86994 2.81973 8.84745C2.78047 8.82497 2.74785 8.79249 2.72519 8.75333C2.70254 8.71416 2.69065 8.6697 2.69074 8.62445C2.69082 8.57921 2.70288 8.53479 2.72569 8.49571L5.86923 3.10708C5.89183 3.06846 5.92415 3.03643 5.96297 3.01417C6.00179 2.99192 6.04576 2.98021 6.0905 2.98021C6.13525 2.98021 6.17922 2.99192 6.21804 3.01417C6.25686 3.03643 6.28918 3.06846 6.31178 3.10708Z" fill="#FE3C72"/>
</g>
<defs>
<clipPath id="clip0_384_195160">
<rect width="12.3075" height="12.3075" fill="white" transform="matrix(0 -1 -1 0 12.7725 12.4717)"/>
</clipPath>
</defs>
</svg>
