<svg width="13" height="12" viewBox="0 0 13 12" fill="none" xmlns="http://www.w3.org/2000/svg">
<path d="M4.90149 10.7945L5.04772 11.031L5.30503 10.9257L6.7023 10.3534L8.09956 10.9257L8.35688 11.031L8.5031 10.7945L9.27978 9.53836L10.7539 9.22377L11.0408 9.16254L11.0121 8.87062L10.8697 7.42571L11.8679 6.33023L12.0693 6.10919L11.8679 5.88814L10.8697 4.79266L11.0121 3.34775L11.0408 3.05583L10.7539 2.99461L9.27978 2.68001L8.5031 1.42384L8.35688 1.18734L8.09957 1.29272L6.7023 1.86497L5.30503 1.29272L5.04772 1.18734L4.90149 1.42384L4.12482 2.68001L2.65065 2.99461L2.36377 3.05583L2.39252 3.34775L2.53485 4.79266L1.5367 5.88814L1.33529 6.10919L1.5367 6.33023L2.53485 7.42571L2.39252 8.87062L2.36377 9.16254L2.65065 9.22377L4.12482 9.53836L4.90149 10.7945ZM6.23237 7.1799L5.11742 6.10919L5.27281 5.95996L6.00784 6.64941L6.23503 6.86251L6.4597 6.64676L8.13042 5.04234L8.29146 5.20252L6.23237 7.1799Z" stroke="#BDBDBD" stroke-width="0.6564"/>
</svg>
